<svg width="1480" height="909" viewBox="0 0 1480 909" fill="none" xmlns="http://www.w3.org/2000/svg">
<g clip-path="url(#clip0)" filter="url(#filter0_d)">
<rect width="1480" height="905" fill="white"/>
<g filter="url(#filter1_d)">
<path d="M15 429.5L20 445L32.5 467L54.5 479H125.5L149.5 467L175.5 479H275L326 671.5L356 680H439.5V671.5L455 680H535.5L545 671.5L557.5 680H637L657 671.5L667 680H835L854 671.5L884.5 680H1048H1069.5L1114.5 661L1140.5 625L1149 589L1140.5 562.5L1166.5 541V479H1259L1283.5 471.5L1334 479L1406.5 471.5L1425.5 445.5V372L1406.5 350L1414 327L1406.5 290.5L1389 254.5L1353 229L1317 220H854H729L707 229L694 242.5L683.5 229L667 220H588.5L576 229L557.5 242.5L545 229L526.5 220H455L439.5 229L427 234.5L422 229L407.5 220H286.5L264 229L240 220H164L149.5 234.5L142 229L125.5 220H54.5L32.5 229L15 251V429.5Z" fill="#FFFF66"/>
<path d="M15 429.5L20 445L32.5 467L54.5 479H125.5L149.5 467L175.5 479H275L326 671.5L356 680H439.5V671.5L455 680H535.5L545 671.5L557.5 680H637L657 671.5L667 680H835L854 671.5L884.5 680H1048H1069.5L1114.5 661L1140.5 625L1149 589L1140.5 562.5L1166.5 541V479H1259L1283.5 471.5L1334 479L1406.5 471.5L1425.5 445.5V372L1406.5 350L1414 327L1406.5 290.5L1389 254.5L1353 229L1317 220H854H729L707 229L694 242.5L683.5 229L667 220H588.5L576 229L557.5 242.5L545 229L526.5 220H455L439.5 229L427 234.5L422 229L407.5 220H286.5L264 229L240 220H164L149.5 234.5L142 229L125.5 220H54.5L32.5 229L15 251V429.5Z" stroke="black"/>
</g>
<g filter="url(#filter2_d)">
<path d="M62 250H125V312H179.5V250H244V422H179.5V359.5H125V422H62V250Z" fill="#FDBCB4"/>
<path d="M62 250H125V312H179.5V250H244V422H179.5V359.5H125V422H62V250Z" stroke="black"/>
</g>
<g filter="url(#filter3_d)">
<path d="M295.5 250L252 421H318.5L326 396.5H370.5L379.5 421H446L401 250H295.5Z" fill="#FDBCB4"/>
<path d="M295.5 250L252 421H318.5L326 396.5H370.5L379.5 421H446L401 250H295.5Z" stroke="black"/>
</g>
<g filter="url(#filter4_d)">
<path d="M604.5 491L561 662H627.5L635 637.5H679.5L688.5 662H755L710 491H604.5Z" fill="#FDBCB4"/>
<path d="M604.5 491L561 662H627.5L635 637.5H679.5L688.5 662H755L710 491H604.5Z" stroke="black"/>
</g>
<path d="M361 360H337L349 313L361 360Z" fill="#FFFF66" stroke="black"/>
<g filter="url(#filter5_d)">
<path d="M670 600H646L658 553L670 600Z" fill="#FFFF66"/>
<path d="M670 600H646L658 553L670 600Z" stroke="black"/>
</g>
<g filter="url(#filter6_d)">
<path d="M454 250V422.5H519.5V370L555 422.5L594.5 370V422.5H657.5V250H594.5L555 303L519.5 250H454Z" fill="#FDBCB4"/>
<path d="M454 250V422.5H519.5V370L555 422.5L594.5 370V422.5H657.5V250H594.5L555 303L519.5 250H454Z" stroke="black"/>
</g>
<g filter="url(#filter7_d)">
<path d="M666 369.5V422H768.5L784.5 417.5L804.5 403.5L815 387V372.5L812 354L804.5 342L764 310L768.5 304.5H863V422H928.5V304.5H987V251H725L694.5 273.5L688.5 293V321.5L694.5 333.5L730 363V369.5H666Z" fill="#FDBCB4"/>
<path d="M666 369.5V422H768.5L784.5 417.5L804.5 403.5L815 387V372.5L812 354L804.5 342L764 310L768.5 304.5H863V422H928.5V304.5H987V251H725L694.5 273.5L688.5 293V321.5L694.5 333.5L730 363V369.5H666Z" stroke="black"/>
</g>
<g filter="url(#filter8_d)">
<path d="M1168 251H996V422.5H1168V367.5H1063V357H1127V314H1063V303H1168V251Z" fill="#FDBCB4"/>
<path d="M1168 251H996V422.5H1168V367.5H1063V357H1127V314H1063V303H1168V251Z" stroke="black"/>
</g>
<g filter="url(#filter9_d)">
<path d="M1308 251H1177V303H1289L1295 308.5V317L1289 329H1177V422.5H1240V371L1281.5 413.5L1301 422.5H1368V367H1328L1323.5 361.5L1344.5 345.5L1354.5 329L1360 308.5L1354.5 287L1344.5 269.5L1328 257.5L1308 251Z" fill="#FDBCB4"/>
<path d="M1308 251H1177V303H1289L1295 308.5V317L1289 329H1177V422.5H1240V371L1281.5 413.5L1301 422.5H1368V367H1328L1323.5 361.5L1344.5 345.5L1354.5 329L1360 308.5L1354.5 287L1344.5 269.5L1328 257.5L1308 251Z" stroke="black"/>
</g>
<g filter="url(#filter10_d)">
<path d="M378 491H314L358.5 662H430.5L446.5 608.5L460.5 662H535.5L578.5 491H515L497 544L481.5 491H409.5L393.5 544L378 491Z" fill="#FDBCB4"/>
<path d="M378 491H314L358.5 662H430.5L446.5 608.5L460.5 662H535.5L578.5 491H515L497 544L481.5 491H409.5L393.5 544L378 491Z" stroke="black"/>
</g>
<g filter="url(#filter11_d)">
<path d="M903 493H766V546.5H875.5L885 552.5V564L875.5 570.5L766 573V661.5H831.5V612L872.5 649L894.5 661.5H1065.5L1092.5 649L1105 628V608L1099.5 588L1054.5 552.5L1057 546.5H1127V493H1035H1007.5L976 527V555.5L984.5 577.5L1022.5 604V612H920.5L914.5 604L927.5 595L944 577.5L950.5 555.5L944 527L927.5 504.5L903 493Z" fill="#FDBCB4"/>
<path d="M903 493H766V546.5H875.5L885 552.5V564L875.5 570.5L766 573V661.5H831.5V612L872.5 649L894.5 661.5H1065.5L1092.5 649L1105 628V608L1099.5 588L1054.5 552.5L1057 546.5H1127V493H1035H1007.5L976 527V555.5L984.5 577.5L1022.5 604V612H920.5L914.5 604L927.5 595L944 577.5L950.5 555.5L944 527L927.5 504.5L903 493Z" stroke="black"/>
</g>
</g>
<defs>
<filter id="filter0_d" x="0" y="0" width="1480" height="909" filterUnits="userSpaceOnUse" color-interpolation-filters="sRGB">
<feFlood flood-opacity="0" result="BackgroundImageFix"/>
<feColorMatrix in="SourceAlpha" type="matrix" values="0 0 0 0 0 0 0 0 0 0 0 0 0 0 0 0 0 0 127 0"/>
<feOffset dy="4"/>
<feColorMatrix type="matrix" values="0 0 0 0 0 0 0 0 0 0 0 0 0 0 0 0 0 0 0.25 0"/>
<feBlend mode="normal" in2="BackgroundImageFix" result="effect1_dropShadow"/>
<feBlend mode="normal" in="SourceGraphic" in2="effect1_dropShadow" result="shape"/>
</filter>
<filter id="filter1_d" x="-6.5" y="211.5" width="1432.5" height="469" filterUnits="userSpaceOnUse" color-interpolation-filters="sRGB">
<feFlood flood-opacity="0" result="BackgroundImageFix"/>
<feColorMatrix in="SourceAlpha" type="matrix" values="0 0 0 0 0 0 0 0 0 0 0 0 0 0 0 0 0 0 127 0"/>
<feOffset dx="-17" dy="-4"/>
<feGaussianBlur stdDeviation="2"/>
<feColorMatrix type="matrix" values="0 0 0 0 0 0 0 0 0 0 0 0 0 0 0 0 0 0 0.25 0"/>
<feBlend mode="normal" in2="BackgroundImageFix" result="effect1_dropShadow"/>
<feBlend mode="normal" in="SourceGraphic" in2="effect1_dropShadow" result="shape"/>
</filter>
<filter id="filter2_d" x="61.5" y="249.5" width="195" height="180" filterUnits="userSpaceOnUse" color-interpolation-filters="sRGB">
<feFlood flood-opacity="0" result="BackgroundImageFix"/>
<feColorMatrix in="SourceAlpha" type="matrix" values="0 0 0 0 0 0 0 0 0 0 0 0 0 0 0 0 0 0 127 0"/>
<feOffset dx="12" dy="7"/>
<feColorMatrix type="matrix" values="0 0 0 0 0 0 0 0 0 0 0 0 0 0 0 0 0 0 0.25 0"/>
<feBlend mode="normal" in2="BackgroundImageFix" result="effect1_dropShadow"/>
<feBlend mode="normal" in="SourceGraphic" in2="effect1_dropShadow" result="shape"/>
</filter>
<filter id="filter3_d" x="251.357" y="249.5" width="211.292" height="183" filterUnits="userSpaceOnUse" color-interpolation-filters="sRGB">
<feFlood flood-opacity="0" result="BackgroundImageFix"/>
<feColorMatrix in="SourceAlpha" type="matrix" values="0 0 0 0 0 0 0 0 0 0 0 0 0 0 0 0 0 0 127 0"/>
<feOffset dx="12" dy="7"/>
<feGaussianBlur stdDeviation="2"/>
<feColorMatrix type="matrix" values="0 0 0 0 0 0 0 0 0 0 0 0 0 0 0 0 0 0 0.25 0"/>
<feBlend mode="normal" in2="BackgroundImageFix" result="effect1_dropShadow"/>
<feBlend mode="normal" in="SourceGraphic" in2="effect1_dropShadow" result="shape"/>
</filter>
<filter id="filter4_d" x="560.357" y="490.5" width="211.292" height="183" filterUnits="userSpaceOnUse" color-interpolation-filters="sRGB">
<feFlood flood-opacity="0" result="BackgroundImageFix"/>
<feColorMatrix in="SourceAlpha" type="matrix" values="0 0 0 0 0 0 0 0 0 0 0 0 0 0 0 0 0 0 127 0"/>
<feOffset dx="12" dy="7"/>
<feGaussianBlur stdDeviation="2"/>
<feColorMatrix type="matrix" values="0 0 0 0 0 0 0 0 0 0 0 0 0 0 0 0 0 0 0.25 0"/>
<feBlend mode="normal" in2="BackgroundImageFix" result="effect1_dropShadow"/>
<feBlend mode="normal" in="SourceGraphic" in2="effect1_dropShadow" result="shape"/>
</filter>
<filter id="filter5_d" x="641.356" y="548.876" width="33.2874" height="55.6237" filterUnits="userSpaceOnUse" color-interpolation-filters="sRGB">
<feFlood flood-opacity="0" result="BackgroundImageFix"/>
<feColorMatrix in="SourceAlpha" type="matrix" values="0 0 0 0 0 0 0 0 0 0 0 0 0 0 0 0 0 0 127 0"/>
<feOffset/>
<feGaussianBlur stdDeviation="2"/>
<feColorMatrix type="matrix" values="0 0 0 0 0 0 0 0 0 0 0 0 0 0 0 0 0 0 0.25 0"/>
<feBlend mode="normal" in2="BackgroundImageFix" result="effect1_dropShadow"/>
<feBlend mode="normal" in="SourceGraphic" in2="effect1_dropShadow" result="shape"/>
</filter>
<filter id="filter6_d" x="453.5" y="249.5" width="220.5" height="184.861" filterUnits="userSpaceOnUse" color-interpolation-filters="sRGB">
<feFlood flood-opacity="0" result="BackgroundImageFix"/>
<feColorMatrix in="SourceAlpha" type="matrix" values="0 0 0 0 0 0 0 0 0 0 0 0 0 0 0 0 0 0 127 0"/>
<feOffset dx="12" dy="7"/>
<feGaussianBlur stdDeviation="2"/>
<feColorMatrix type="matrix" values="0 0 0 0 0 0 0 0 0 0 0 0 0 0 0 0 0 0 0.25 0"/>
<feBlend mode="normal" in2="BackgroundImageFix" result="effect1_dropShadow"/>
<feBlend mode="normal" in="SourceGraphic" in2="effect1_dropShadow" result="shape"/>
</filter>
<filter id="filter7_d" x="665.5" y="250.5" width="338" height="183" filterUnits="userSpaceOnUse" color-interpolation-filters="sRGB">
<feFlood flood-opacity="0" result="BackgroundImageFix"/>
<feColorMatrix in="SourceAlpha" type="matrix" values="0 0 0 0 0 0 0 0 0 0 0 0 0 0 0 0 0 0 127 0"/>
<feOffset dx="12" dy="7"/>
<feGaussianBlur stdDeviation="2"/>
<feColorMatrix type="matrix" values="0 0 0 0 0 0 0 0 0 0 0 0 0 0 0 0 0 0 0.25 0"/>
<feBlend mode="normal" in2="BackgroundImageFix" result="effect1_dropShadow"/>
<feBlend mode="normal" in="SourceGraphic" in2="effect1_dropShadow" result="shape"/>
</filter>
<filter id="filter8_d" x="995.5" y="250.5" width="189" height="183.5" filterUnits="userSpaceOnUse" color-interpolation-filters="sRGB">
<feFlood flood-opacity="0" result="BackgroundImageFix"/>
<feColorMatrix in="SourceAlpha" type="matrix" values="0 0 0 0 0 0 0 0 0 0 0 0 0 0 0 0 0 0 127 0"/>
<feOffset dx="12" dy="7"/>
<feGaussianBlur stdDeviation="2"/>
<feColorMatrix type="matrix" values="0 0 0 0 0 0 0 0 0 0 0 0 0 0 0 0 0 0 0.25 0"/>
<feBlend mode="normal" in2="BackgroundImageFix" result="effect1_dropShadow"/>
<feBlend mode="normal" in="SourceGraphic" in2="effect1_dropShadow" result="shape"/>
</filter>
<filter id="filter9_d" x="1176.5" y="250.5" width="208" height="183.5" filterUnits="userSpaceOnUse" color-interpolation-filters="sRGB">
<feFlood flood-opacity="0" result="BackgroundImageFix"/>
<feColorMatrix in="SourceAlpha" type="matrix" values="0 0 0 0 0 0 0 0 0 0 0 0 0 0 0 0 0 0 127 0"/>
<feOffset dx="12" dy="7"/>
<feGaussianBlur stdDeviation="2"/>
<feColorMatrix type="matrix" values="0 0 0 0 0 0 0 0 0 0 0 0 0 0 0 0 0 0 0.25 0"/>
<feBlend mode="normal" in2="BackgroundImageFix" result="effect1_dropShadow"/>
<feBlend mode="normal" in="SourceGraphic" in2="effect1_dropShadow" result="shape"/>
</filter>
<filter id="filter10_d" x="313.353" y="490.5" width="281.788" height="183" filterUnits="userSpaceOnUse" color-interpolation-filters="sRGB">
<feFlood flood-opacity="0" result="BackgroundImageFix"/>
<feColorMatrix in="SourceAlpha" type="matrix" values="0 0 0 0 0 0 0 0 0 0 0 0 0 0 0 0 0 0 127 0"/>
<feOffset dx="12" dy="7"/>
<feGaussianBlur stdDeviation="2"/>
<feColorMatrix type="matrix" values="0 0 0 0 0 0 0 0 0 0 0 0 0 0 0 0 0 0 0.25 0"/>
<feBlend mode="normal" in2="BackgroundImageFix" result="effect1_dropShadow"/>
<feBlend mode="normal" in="SourceGraphic" in2="effect1_dropShadow" result="shape"/>
</filter>
<filter id="filter11_d" x="765.5" y="492.5" width="378" height="180.5" filterUnits="userSpaceOnUse" color-interpolation-filters="sRGB">
<feFlood flood-opacity="0" result="BackgroundImageFix"/>
<feColorMatrix in="SourceAlpha" type="matrix" values="0 0 0 0 0 0 0 0 0 0 0 0 0 0 0 0 0 0 127 0"/>
<feOffset dx="12" dy="7"/>
<feGaussianBlur stdDeviation="2"/>
<feColorMatrix type="matrix" values="0 0 0 0 0 0 0 0 0 0 0 0 0 0 0 0 0 0 0.25 0"/>
<feBlend mode="normal" in2="BackgroundImageFix" result="effect1_dropShadow"/>
<feBlend mode="normal" in="SourceGraphic" in2="effect1_dropShadow" result="shape"/>
</filter>
<clipPath id="clip0">
<rect width="1480" height="905" fill="white"/>
</clipPath>
</defs>
</svg>
